<?xml version="1.0" encoding="UTF-8"?>
<svg version="1.1" xmlns="http://www.w3.org/2000/svg" width="980" height="980">
<path d="M0 0 C2.61666862 2.34829235 5.19614163 4.73364664 7.75927734 7.14013672 C9.86873173 9.10046915 12.00108052 10.9655273 14.22412109 12.79248047 C17.26530243 15.37420275 19.85104955 18.207735 22.42333984 21.25341797 C23.85686093 22.94885941 25.32195471 24.61778231 26.80615234 26.26904297 C56.0068744 59.082338 73.24788292 100.60831656 72.41162109 144.60498047 C73.41902344 144.74226563 73.41902344 144.74226563 74.44677734 144.88232422 C78.19335564 145.79552183 81.43975363 147.41708041 84.84912109 149.16748047 C85.55214355 149.52535645 86.25516602 149.88323242 86.97949219 150.25195312 C129.66640621 172.17641313 166.50097589 206.86777114 182.57128906 252.98876953 C192.69949495 284.5209759 192.16501221 317.37680368 177.23486328 347.30322266 C173.04784808 355.32803511 168.2257592 362.64723504 162.41162109 369.60498047 C161.58017578 370.60013672 160.74873047 371.59529297 159.89208984 372.62060547 C149.88133037 384.21875355 137.74140787 393.12429182 124.41162109 400.60498047 C123.82219727 400.93594727 123.23277344 401.26691406 122.62548828 401.60791016 C108.66374619 409.32341544 93.62661453 414.37714349 78.09912109 417.91748047 C77.13449951 418.13839355 77.13449951 418.13839355 76.15039062 418.36376953 C63.07316797 421.12196863 49.92926261 422.0084446 36.59912109 421.97998047 C35.85158569 421.98109833 35.10405029 421.98221619 34.3338623 421.98336792 C20.62496024 421.97337283 7.45662674 420.53345565 -6.04345703 418.0625 C-9.21635451 417.49208463 -12.3936029 417.03365804 -15.58837891 416.60498047 C-15.95898438 417.27625977 -16.32958984 417.94753906 -16.71142578 418.63916016 C-24.61359111 432.93946791 -32.59439599 447.18975197 -40.72485352 461.36157227 C-43.91743591 466.92735517 -47.09898631 472.49856414 -50.24072266 478.09326172 C-50.81741699 479.11967773 -51.39411133 480.14609375 -51.98828125 481.20361328 C-53.04983588 483.09601758 -54.10900082 484.98976571 -55.16503906 486.88525391 C-68.21991789 510.14540292 -68.21991789 510.14540292 -82.73291016 514.90966797 C-95.84610886 518.10275876 -106.76957302 512.38234424 -117.96337891 506.04248047 C-119.90540084 504.96572073 -121.84812606 503.89022857 -123.79150391 502.81591797 C-124.7628125 502.27676758 -125.73412109 501.73761719 -126.73486328 501.18212891 C-200.54379591 460.38766409 -283.15523934 432.60136639 -380.22119141 415.76513672 C-381.21669006 415.61013702 -382.21218872 415.45513733 -383.237854 415.29544067 C-388.13352184 414.53682491 -393.03091248 413.79691594 -397.93408203 413.08837891 C-399.72772614 412.81933527 -401.52134705 412.55013688 -403.31494141 412.28076172 C-404.52212326 412.11544701 -404.52212326 412.11544701 -405.75369263 411.9467926 C-415.0422359 410.52631857 -423.43287586 406.87261221 -429.58837891 399.60498047 C-439.7741893 382.90910865 -435.5017898 365.81310381 -433.11962891 347.39794922 C-432.87654215 345.4960747 -432.6337497 343.59416255 -432.39123535 341.69221497 C-431.88642656 337.74112993 -431.3784867 333.79046444 -430.86816406 329.84008789 C-430.21354631 324.77113605 -429.56635385 319.70126832 -428.92136383 314.63108349 C-428.4230898 310.71980546 -427.92126872 306.80898909 -427.4183197 302.89830971 C-427.1780662 301.02727757 -426.93885446 299.15611135 -426.70069885 297.28481102 C-426.36930215 294.68557407 -426.03321312 292.08698732 -425.69580078 289.48852539 C-425.54926308 288.32841446 -425.54926308 288.32841446 -425.39976501 287.14486694 C-424.70270517 281.833633 -424.70270517 281.833633 -423.58837891 279.60498047 C-424.7659375 279.26466797 -424.7659375 279.26466797 -425.96728516 278.91748047 C-468.15156074 263.62738705 -506.55104471 226.77490008 -525.68261719 186.60791016 C-539.89681611 155.17575706 -543.32307328 120.77114338 -531.37744141 88.05810547 C-521.76370139 63.32467287 -503.94108184 42.75234151 -481.58837891 28.60498047 C-480.49267578 27.91017578 -479.39697266 27.21537109 -478.26806641 26.49951172 C-456.97482606 13.72850794 -433.14983666 6.54792748 -408.58837891 3.60498047 C-407.81357178 3.51071777 -407.03876465 3.41645508 -406.24047852 3.31933594 C-381.2606334 0.53522001 -356.06957989 3.46064464 -331.58837891 8.60498047 C-330.9096875 7.70972656 -330.9096875 7.70972656 -330.21728516 6.79638672 C-314.86882722 -12.73010135 -296.6256796 -27.96980977 -274.58837891 -39.39501953 C-273.95528809 -39.72453613 -273.32219727 -40.05405273 -272.66992188 -40.39355469 C-187.26645193 -84.17356343 -70.84973671 -62.22493015 0 0 Z " fill="#F7F5F3" transform="translate(664.58837890625,263.39501953125)"/>
<path d="M0 0 C2.61666862 2.34829235 5.19614163 4.73364664 7.75927734 7.14013672 C9.86873173 9.10046915 12.00108052 10.9655273 14.22412109 12.79248047 C17.26530243 15.37420275 19.85104955 18.207735 22.42333984 21.25341797 C23.85686093 22.94885941 25.32195471 24.61778231 26.80615234 26.26904297 C56.0068744 59.082338 73.24788292 100.60831656 72.41162109 144.60498047 C73.41902344 144.74226563 73.41902344 144.74226563 74.44677734 144.88232422 C78.19335564 145.79552183 81.43975363 147.41708041 84.84912109 149.16748047 C85.55214355 149.52535645 86.25516602 149.88323242 86.97949219 150.25195312 C129.66640621 172.17641313 166.50097589 206.86777114 182.57128906 252.98876953 C192.69949495 284.5209759 192.16501221 317.37680368 177.23486328 347.30322266 C173.04784808 355.32803511 168.2257592 362.64723504 162.41162109 369.60498047 C161.58017578 370.60013672 160.74873047 371.59529297 159.89208984 372.62060547 C149.88133037 384.21875355 137.74140787 393.12429182 124.41162109 400.60498047 C123.82219727 400.93594727 123.23277344 401.26691406 122.62548828 401.60791016 C108.66374619 409.32341544 93.62661453 414.37714349 78.09912109 417.91748047 C77.13449951 418.13839355 77.13449951 418.13839355 76.15039062 418.36376953 C63.07316797 421.12196863 49.92926261 422.0084446 36.59912109 421.97998047 C35.85158569 421.98109833 35.10405029 421.98221619 34.3338623 421.98336792 C20.62496024 421.97337283 7.45662674 420.53345565 -6.04345703 418.0625 C-9.21635451 417.49208463 -12.3936029 417.03365804 -15.58837891 416.60498047 C-15.95898438 417.27625977 -16.32958984 417.94753906 -16.71142578 418.63916016 C-24.61359111 432.93946791 -32.59439599 447.18975197 -40.72485352 461.36157227 C-43.91743591 466.92735517 -47.09898631 472.49856414 -50.24072266 478.09326172 C-50.81741699 479.11967773 -51.39411133 480.14609375 -51.98828125 481.20361328 C-53.04983588 483.09601758 -54.10900082 484.98976571 -55.16503906 486.88525391 C-68.21991789 510.14540292 -68.21991789 510.14540292 -82.73291016 514.90966797 C-95.84610886 518.10275876 -106.76957302 512.38234424 -117.96337891 506.04248047 C-119.90540084 504.96572073 -121.84812606 503.89022857 -123.79150391 502.81591797 C-124.7628125 502.27676758 -125.73412109 501.73761719 -126.73486328 501.18212891 C-200.54379591 460.38766409 -283.15523934 432.60136639 -380.22119141 415.76513672 C-381.21669006 415.61013702 -382.21218872 415.45513733 -383.237854 415.29544067 C-388.13352184 414.53682491 -393.03091248 413.79691594 -397.93408203 413.08837891 C-399.72772614 412.81933527 -401.52134705 412.55013688 -403.31494141 412.28076172 C-404.52212326 412.11544701 -404.52212326 412.11544701 -405.75369263 411.9467926 C-415.0422359 410.52631857 -423.43287586 406.87261221 -429.58837891 399.60498047 C-439.7741893 382.90910865 -435.5017898 365.81310381 -433.11962891 347.39794922 C-432.87654215 345.4960747 -432.6337497 343.59416255 -432.39123535 341.69221497 C-431.88642656 337.74112993 -431.3784867 333.79046444 -430.86816406 329.84008789 C-430.21354631 324.77113605 -429.56635385 319.70126832 -428.92136383 314.63108349 C-428.4230898 310.71980546 -427.92126872 306.80898909 -427.4183197 302.89830971 C-427.1780662 301.02727757 -426.93885446 299.15611135 -426.70069885 297.28481102 C-426.36930215 294.68557407 -426.03321312 292.08698732 -425.69580078 289.48852539 C-425.54926308 288.32841446 -425.54926308 288.32841446 -425.39976501 287.14486694 C-424.70270517 281.833633 -424.70270517 281.833633 -423.58837891 279.60498047 C-424.7659375 279.26466797 -424.7659375 279.26466797 -425.96728516 278.91748047 C-468.15156074 263.62738705 -506.55104471 226.77490008 -525.68261719 186.60791016 C-539.89681611 155.17575706 -543.32307328 120.77114338 -531.37744141 88.05810547 C-521.76370139 63.32467287 -503.94108184 42.75234151 -481.58837891 28.60498047 C-480.49267578 27.91017578 -479.39697266 27.21537109 -478.26806641 26.49951172 C-456.97482606 13.72850794 -433.14983666 6.54792748 -408.58837891 3.60498047 C-407.81357178 3.51071777 -407.03876465 3.41645508 -406.24047852 3.31933594 C-381.2606334 0.53522001 -356.06957989 3.46064464 -331.58837891 8.60498047 C-330.9096875 7.70972656 -330.9096875 7.70972656 -330.21728516 6.79638672 C-314.86882722 -12.73010135 -296.6256796 -27.96980977 -274.58837891 -39.39501953 C-273.95528809 -39.72453613 -273.32219727 -40.05405273 -272.66992188 -40.39355469 C-187.26645193 -84.17356343 -70.84973671 -62.22493015 0 0 Z M-300.58837891 -10.39501953 C-302.02117187 -9.16332031 -302.02117187 -9.16332031 -303.48291016 -7.90673828 C-312.72863462 0.21869914 -320.8997891 9.24695597 -327.58837891 19.60498047 C-328.16692627 19.49428223 -328.74547363 19.38358398 -329.34155273 19.26953125 C-334.91172887 18.20437569 -340.48289556 17.14456005 -346.0546875 16.08789062 C-348.05263767 15.70709033 -350.04927541 15.31940409 -352.04541016 14.92919922 C-362.88908356 12.84937313 -373.67761361 12.41842109 -384.69335938 12.41967773 C-386.8213321 12.41749793 -388.94877891 12.39928669 -391.07666016 12.38037109 C-403.97990636 12.32608562 -416.46504159 13.78659888 -429.02587891 16.85498047 C-429.9149292 17.07114014 -430.80397949 17.2872998 -431.7199707 17.51000977 C-464.97874074 25.88366114 -496.25410784 45.35330409 -514.40087891 74.97998047 C-518.6409918 82.21174921 -521.95506637 89.65225479 -524.58837891 97.60498047 C-525.00216797 98.83861328 -525.41595703 100.07224609 -525.84228516 101.34326172 C-531.20950318 119.29793767 -530.4613499 140.60642632 -525.58837891 158.60498047 C-525.42208984 159.24757813 -525.25580078 159.89017578 -525.08447266 160.55224609 C-519.2213478 182.85383583 -506.83748241 202.54106867 -491.58837891 219.60498047 C-490.37962988 221.02129246 -489.17123724 222.43790879 -487.96337891 223.85498047 C-470.18098941 243.89677945 -444.93979169 262.45724162 -419.58837891 271.60498047 C-417.34016001 271.66692221 -417.34016001 271.66692221 -415.33837891 270.97998047 C-414.58298828 270.77244141 -413.82759766 270.56490234 -413.04931641 270.35107422 C-412.23720703 270.10486328 -411.42509766 269.85865234 -410.58837891 269.60498047 C-408.71459388 269.07979284 -406.83955238 268.5590707 -404.96337891 268.04248047 C-404.04685547 267.78724609 -403.13033203 267.53201172 -402.18603516 267.26904297 C-398.98781771 266.45145355 -395.86635068 265.96919956 -392.58837891 265.60498047 C-392.58837891 264.94498047 -392.58837891 264.28498047 -392.58837891 263.60498047 C-393.32958984 263.34845703 -394.07080078 263.09193359 -394.83447266 262.82763672 C-408.78809966 257.75514318 -422.03071677 250.99671852 -433.58837891 241.60498047 C-434.43787109 240.91919922 -435.28736328 240.23341797 -436.16259766 239.52685547 C-446.20271754 230.97814696 -453.35988774 220.68176986 -458.58837891 208.60498047 C-458.58837891 208.27498047 -458.58837891 207.94498047 -458.58837891 207.60498047 C-458.25966797 208.27142578 -457.93095703 208.93787109 -457.59228516 209.62451172 C-446.52196753 231.07512717 -427.8801318 244.5755589 -405.51806641 252.55810547 C-402.89775645 253.49442956 -400.38577645 254.55245797 -397.83837891 255.66748047 C-386.56874607 260.17165672 -374.57002427 262.69484348 -362.45985413 261.37257385 C-356.68823884 260.74918793 -350.97760725 260.40905123 -345.17431641 260.33154297 C-344.2983783 260.31896957 -343.42244019 260.30639618 -342.5199585 260.29344177 C-310.26469156 259.92237194 -279.0960134 262.66993955 -247.74902344 270.45678711 C-245.97180908 270.89752563 -245.97180908 270.89752563 -244.15869141 271.34716797 C-243.12502441 271.61384277 -242.09135742 271.88051758 -241.02636719 272.15527344 C-238.59144874 272.85736603 -238.59144874 272.85736603 -236.58837891 271.60498047 C-237.23162109 271.15509766 -237.87486328 270.70521484 -238.53759766 270.24169922 C-256.89906182 257.17127038 -273.33461413 241.88654277 -286.58837891 223.60498047 C-287.27625488 222.65969482 -287.27625488 222.65969482 -287.97802734 221.6953125 C-308.27043055 193.56743684 -321.4771691 161.92646938 -330.58837891 128.60498047 C-328.88205641 130.31130296 -328.37884025 132.64178186 -327.54150391 134.87841797 C-313.32857183 172.30365473 -295.63116618 206.61159023 -267.58837891 235.60498047 C-267.09015625 236.12898438 -266.59193359 236.65298828 -266.07861328 237.19287109 C-250.34159943 253.71379597 -231.96377518 266.54472349 -212.08837891 277.66748047 C-211.28835449 278.12058594 -210.48833008 278.57369141 -209.6640625 279.04052734 C-204.83743156 281.6763258 -200.12672047 283.53786197 -194.8203125 284.98803711 C-189.29555595 286.51517119 -184.05004267 288.8228517 -178.77587891 291.04248047 C-177.21546875 291.68830078 -177.21546875 291.68830078 -175.62353516 292.34716797 C-173.79103504 293.10658243 -171.96368406 293.87884669 -170.14697266 294.67529297 C-146.92248322 304.14402542 -117.66454776 304.86420212 -93.58837891 298.60498047 C-92.61513672 298.40001953 -91.64189453 298.19505859 -90.63916016 297.98388672 C-69.72361164 293.38988493 -49.46280888 284.08078225 -33.58837891 269.60498047 C-46.24979756 286.97101603 -72.55654415 299.26653813 -93.08837891 303.72998047 C-93.77029297 303.88595703 -94.45220703 304.04193359 -95.15478516 304.20263672 C-96.56128367 304.52074199 -97.96973297 304.83032894 -99.37988281 305.13183594 C-100.89042568 305.45545213 -102.39788105 305.79373334 -103.90234375 306.14453125 C-110.66856117 307.64526276 -117.2978698 308.02831313 -124.21337891 308.22998047 C-125.31294922 308.26865234 -126.41251953 308.30732422 -127.54541016 308.34716797 C-130.22624349 308.44041435 -132.90708781 308.52621314 -135.58837891 308.60498047 C-130.6505796 312.51983551 -125.03850658 315.15489988 -119.46337891 318.04248047 C-118.37283203 318.61546875 -117.28228516 319.18845703 -116.15869141 319.77880859 C-109.75359855 323.10777133 -103.34407299 326.0659013 -96.58837891 328.60498047 C-95.63447266 328.98783203 -94.68056641 329.37068359 -93.69775391 329.76513672 C-77.80794601 335.84219901 -61.55893555 336.80177234 -44.70483398 336.90014648 C-43.3372159 336.91168825 -41.96964363 336.93217521 -40.60229492 336.96166992 C-27.45102621 337.24295527 -15.67191684 335.02266418 -4.21337891 328.35498047 C-3.56111328 327.99146484 -2.90884766 327.62794922 -2.23681641 327.25341797 C-0.68007556 326.38347456 0.8670038 325.49627224 2.41162109 324.60498047 C-0.54196403 326.68105117 -3.54409681 328.6643656 -6.58837891 330.60498047 C-7.62091797 331.26626953 -7.62091797 331.26626953 -8.67431641 331.94091797 C-29.72189987 343.87041473 -57.38480377 342.16156386 -80.58837891 339.60498047 C-80.58837891 340.26498047 -80.58837891 340.92498047 -80.58837891 341.60498047 C-79.04081919 342.81858566 -79.04081919 342.81858566 -76.96337891 344.04248047 C-65.17615338 351.67276909 -54.69909048 360.90653033 -44.58837891 370.60498047 C-43.76466797 371.38744141 -42.94095703 372.16990234 -42.09228516 372.97607422 C-38.09326312 376.86420483 -34.70380507 380.79565256 -31.40087891 385.29248047 C-24.92349094 393.40626119 -14.64746831 396.91859385 -4.58837891 398.60498047 C-1.08215732 398.82239146 2.40053959 398.79632358 5.91162109 398.72998047 C6.82943359 398.72095703 7.74724609 398.71193359 8.69287109 398.70263672 C10.93273665 398.67930479 13.17203292 398.64657282 15.41162109 398.60498047 C9.51346123 401.19566527 3.72291277 400.86489263 -2.58837891 400.79248047 C-3.65572266 400.79183594 -4.72306641 400.79119141 -5.82275391 400.79052734 C-10.84422281 400.76242211 -15.65751045 400.67504741 -20.58837891 399.60498047 C-19.51612799 403.2505609 -19.51612799 403.2505609 -16.80444336 405.70507812 C-14.48648275 406.64635859 -12.34039359 407.17611727 -9.88134766 407.62841797 C-8.55562744 407.87543457 -8.55562744 407.87543457 -7.203125 408.12744141 C-6.34025879 408.2850293 -5.47739258 408.44261719 -4.58837891 408.60498047 C-3.87891113 408.74967773 -3.16944336 408.894375 -2.43847656 409.04345703 C29.24219633 415.42941111 65.0615399 413.71817937 95.41162109 402.60498047 C96.63623047 402.16412109 97.86083984 401.72326172 99.12255859 401.26904297 C113.70845002 395.73435461 127.39846597 388.64359767 139.41162109 378.60498047 C140.40677734 377.77353516 141.40193359 376.94208984 142.42724609 376.08544922 C159.06289817 361.73500199 169.95088883 343.5180335 176.41162109 322.60498047 C176.76353516 321.48349609 177.11544922 320.36201172 177.47802734 319.20654297 C182.18249807 301.05791531 181.07256657 279.4046354 175.41162109 261.60498047 C175.20794922 260.9470752 175.00427734 260.28916992 174.79443359 259.61132812 C160.51713852 214.78546882 124.79937503 181.28700839 84.12646484 159.78857422 C82.30695302 158.8482961 80.48535103 157.91205093 78.66162109 156.97998047 C77.79126221 156.52937256 76.92090332 156.07876465 76.02416992 155.61450195 C75.20843506 155.20659424 74.3927002 154.79868652 73.55224609 154.37841797 C72.82553711 154.01151855 72.09882812 153.64461914 71.35009766 153.26660156 C69.23668835 152.3267837 69.23668835 152.3267837 66.41162109 153.60498047 C64.99324875 156.53860771 64.99324875 156.53860771 63.84912109 160.10498047 C63.43533203 161.29091797 63.02154297 162.47685547 62.59521484 163.69873047 C58.11938112 177.92262388 56.52456695 194.91460535 63.41162109 208.60498047 C64.89359395 211.08109472 66.43247709 213.440929 68.14208984 215.76513672 C69.41162109 217.60498047 69.41162109 217.60498047 70.41162109 220.60498047 C61.3297512 208.95404564 55.00473464 197.25353409 55.03662109 182.22998047 C55.03750732 181.45976562 55.03839355 180.68955078 55.03930664 179.89599609 C55.24776589 169.45821925 57.72824676 159.30370225 61.16162109 149.47998047 C63.29792742 142.73436104 62.69012697 135.58851525 62.41162109 128.60498047 C62.38068359 127.48607422 62.34974609 126.36716797 62.31787109 125.21435547 C61.93139621 117.36891525 60.29763451 110.12555583 58.01953125 102.61914062 C57.61176212 101.26809834 57.2157167 99.91346598 56.83105469 98.55566406 C49.36599457 72.27791759 34.29828834 49.89681008 16.41162109 29.60498047 C15.69103516 28.76193359 14.97044922 27.91888672 14.22802734 27.05029297 C10.55293105 22.79491831 6.74374237 18.9578834 2.44677734 15.33154297 C0.38142593 13.57936384 -1.59746882 11.75350002 -3.58837891 9.91748047 C-33.84893497 -16.88325093 -70.00602897 -33.47038089 -108.58837891 -44.39501953 C-109.46413574 -44.65154297 -110.33989258 -44.90806641 -111.2421875 -45.17236328 C-132.17161956 -51.26391873 -153.40293711 -52.66304611 -175.08837891 -52.64501953 C-175.88033661 -52.64442535 -176.67229431 -52.64383118 -177.48825073 -52.64321899 C-221.45442541 -52.51692703 -266.8316014 -39.48838037 -300.58837891 -10.39501953 Z " fill="#F7F6F3" transform="translate(664.58837890625,263.39501953125)"/>
<path d="M0 0 C2.61666862 2.34829235 5.19614163 4.73364664 7.75927734 7.14013672 C9.86873173 9.10046915 12.00108052 10.9655273 14.22412109 12.79248047 C17.26530243 15.37420275 19.85104955 18.207735 22.42333984 21.25341797 C23.85686093 22.94885941 25.32195471 24.61778231 26.80615234 26.26904297 C56.0068744 59.082338 73.24788292 100.60831656 72.41162109 144.60498047 C73.41902344 144.74226563 73.41902344 144.74226563 74.44677734 144.88232422 C78.19335564 145.79552183 81.43975363 147.41708041 84.84912109 149.16748047 C85.55214355 149.52535645 86.25516602 149.88323242 86.97949219 150.25195312 C129.66640621 172.17641313 166.50097589 206.86777114 182.57128906 252.98876953 C192.69949495 284.5209759 192.16501221 317.37680368 177.23486328 347.30322266 C173.04784808 355.32803511 168.2257592 362.64723504 162.41162109 369.60498047 C161.58017578 370.60013672 160.74873047 371.59529297 159.89208984 372.62060547 C149.88133037 384.21875355 137.74140787 393.12429182 124.41162109 400.60498047 C123.82219727 400.93594727 123.23277344 401.26691406 122.62548828 401.60791016 C108.66374619 409.32341544 93.62661453 414.37714349 78.09912109 417.91748047 C77.13449951 418.13839355 77.13449951 418.13839355 76.15039062 418.36376953 C63.07316797 421.12196863 49.92926261 422.0084446 36.59912109 421.97998047 C35.85158569 421.98109833 35.10405029 421.98221619 34.3338623 421.98336792 C20.62496024 421.97337283 7.45662674 420.53345565 -6.04345703 418.0625 C-9.21635451 417.49208463 -12.3936029 417.03365804 -15.58837891 416.60498047 C-15.95898438 417.27625977 -16.32958984 417.94753906 -16.71142578 418.63916016 C-24.61359111 432.93946791 -32.59439599 447.18975197 -40.72485352 461.36157227 C-43.91743591 466.92735517 -47.09898631 472.49856414 -50.24072266 478.09326172 C-50.81741699 479.11967773 -51.39411133 480.14609375 -51.98828125 481.20361328 C-53.04983588 483.09601758 -54.10900082 484.98976571 -55.16503906 486.88525391 C-68.21991789 510.14540292 -68.21991789 510.14540292 -82.73291016 514.90966797 C-95.84610886 518.10275876 -106.76957302 512.38234424 -117.96337891 506.04248047 C-119.90540084 504.96572073 -121.84812606 503.89022857 -123.79150391 502.81591797 C-124.7628125 502.27676758 -125.73412109 501.73761719 -126.73486328 501.18212891 C-200.54379591 460.38766409 -283.15523934 432.60136639 -380.22119141 415.76513672 C-381.21669006 415.61013702 -382.21218872 415.45513733 -383.237854 415.29544067 C-388.13352184 414.53682491 -393.03091248 413.79691594 -397.93408203 413.08837891 C-399.72772614 412.81933527 -401.52134705 412.55013688 -403.31494141 412.28076172 C-404.52212326 412.11544701 -404.52212326 412.11544701 -405.75369263 411.9467926 C-415.0422359 410.52631857 -423.43287586 406.87261221 -429.58837891 399.60498047 C-439.7741893 382.90910865 -435.5017898 365.81310381 -433.11962891 347.39794922 C-432.87654215 345.4960747 -432.6337497 343.59416255 -432.39123535 341.69221497 C-431.88642656 337.74112993 -431.3784867 333.79046444 -430.86816406 329.84008789 C-430.21354631 324.77113605 -429.56635385 319.70126832 -428.92136383 314.63108349 C-428.4230898 310.71980546 -427.92126872 306.80898909 -427.4183197 302.89830971 C-427.1780662 301.02727757 -426.93885446 299.15611135 -426.70069885 297.28481102 C-426.36930215 294.68557407 -426.03321312 292.08698732 -425.69580078 289.48852539 C-425.54926308 288.32841446 -425.54926308 288.32841446 -425.39976501 287.14486694 C-424.70270517 281.833633 -424.70270517 281.833633 -423.58837891 279.60498047 C-424.7659375 279.26466797 -424.7659375 279.26466797 -425.96728516 278.91748047 C-468.15156074 263.62738705 -506.55104471 226.77490008 -525.68261719 186.60791016 C-539.89681611 155.17575706 -543.32307328 120.77114338 -531.37744141 88.05810547 C-521.76370139 63.32467287 -503.94108184 42.75234151 -481.58837891 28.60498047 C-480.49267578 27.91017578 -479.39697266 27.21537109 -478.26806641 26.49951172 C-456.97482606 13.72850794 -433.14983666 6.54792748 -408.58837891 3.60498047 C-407.81357178 3.51071777 -407.03876465 3.41645508 -406.24047852 3.31933594 C-381.2606334 0.53522001 -356.06957989 3.46064464 -331.58837891 8.60498047 C-330.9096875 7.70972656 -330.9096875 7.70972656 -330.21728516 6.79638672 C-314.86882722 -12.73010135 -296.6256796 -27.96980977 -274.58837891 -39.39501953 C-273.95528809 -39.72453613 -273.32219727 -40.05405273 -272.66992188 -40.39355469 C-187.26645193 -84.17356343 -70.84973671 -62.22493015 0 0 Z M-300.58837891 -10.39501953 C-302.02117187 -9.16332031 -302.02117187 -9.16332031 -303.48291016 -7.90673828 C-312.72863462 0.21869914 -320.8997891 9.24695597 -327.58837891 19.60498047 C-328.16692627 19.49428223 -328.74547363 19.38358398 -329.34155273 19.26953125 C-334.91172887 18.20437569 -340.48289556 17.14456005 -346.0546875 16.08789062 C-348.05263767 15.70709033 -350.04927541 15.31940409 -352.04541016 14.92919922 C-362.88908356 12.84937313 -373.67761361 12.41842109 -384.69335938 12.41967773 C-386.8213321 12.41749793 -388.94877891 12.39928669 -391.07666016 12.38037109 C-403.97990636 12.32608562 -416.46504159 13.78659888 -429.02587891 16.85498047 C-429.9149292 17.07114014 -430.80397949 17.2872998 -431.7199707 17.51000977 C-464.97874074 25.88366114 -496.25410784 45.35330409 -514.40087891 74.97998047 C-518.6409918 82.21174921 -521.95506637 89.65225479 -524.58837891 97.60498047 C-525.00216797 98.83861328 -525.41595703 100.07224609 -525.84228516 101.34326172 C-531.20950318 119.29793767 -530.4613499 140.60642632 -525.58837891 158.60498047 C-525.42208984 159.24757813 -525.25580078 159.89017578 -525.08447266 160.55224609 C-519.2213478 182.85383583 -506.83748241 202.54106867 -491.58837891 219.60498047 C-490.37962988 221.02129246 -489.17123724 222.43790879 -487.96337891 223.85498047 C-470.18098941 243.89677945 -444.93979169 262.45724162 -419.58837891 271.60498047 C-417.34016001 271.66692221 -417.34016001 271.66692221 -415.33837891 270.97998047 C-414.58298828 270.77244141 -413.82759766 270.56490234 -413.04931641 270.35107422 C-412.23720703 270.10486328 -411.42509766 269.85865234 -410.58837891 269.60498047 C-408.71459388 269.07979284 -406.83955238 268.5590707 -404.96337891 268.04248047 C-404.04685547 267.78724609 -403.13033203 267.53201172 -402.18603516 267.26904297 C-398.98781771 266.45145355 -395.86635068 265.96919956 -392.58837891 265.60498047 C-392.58837891 264.94498047 -392.58837891 264.28498047 -392.58837891 263.60498047 C-393.32958984 263.34845703 -394.07080078 263.09193359 -394.83447266 262.82763672 C-408.78809966 257.75514318 -422.03071677 250.99671852 -433.58837891 241.60498047 C-434.43787109 240.91919922 -435.28736328 240.23341797 -436.16259766 239.52685547 C-446.20271754 230.97814696 -453.35988774 220.68176986 -458.58837891 208.60498047 C-458.58837891 208.27498047 -458.58837891 207.94498047 -458.58837891 207.60498047 C-458.25966797 208.27142578 -457.93095703 208.93787109 -457.59228516 209.62451172 C-446.52196753 231.07512717 -427.8801318 244.5755589 -405.51806641 252.55810547 C-402.89775645 253.49442956 -400.38577645 254.55245797 -397.83837891 255.66748047 C-386.56874607 260.17165672 -374.57002427 262.69484348 -362.45985413 261.37257385 C-356.68823884 260.74918793 -350.97760725 260.40905123 -345.17431641 260.33154297 C-344.2983783 260.31896957 -343.42244019 260.30639618 -342.5199585 260.29344177 C-310.26469156 259.92237194 -279.0960134 262.66993955 -247.74902344 270.45678711 C-245.97180908 270.89752563 -245.97180908 270.89752563 -244.15869141 271.34716797 C-243.12502441 271.61384277 -242.09135742 271.88051758 -241.02636719 272.15527344 C-238.59144874 272.85736603 -238.59144874 272.85736603 -236.58837891 271.60498047 C-237.23162109 271.15509766 -237.87486328 270.70521484 -238.53759766 270.24169922 C-256.89906182 257.17127038 -273.33461413 241.88654277 -286.58837891 223.60498047 C-287.27625488 222.65969482 -287.27625488 222.65969482 -287.97802734 221.6953125 C-308.27043055 193.56743684 -321.4771691 161.92646938 -330.58837891 128.60498047 C-328.88205641 130.31130296 -328.37884025 132.64178186 -327.54150391 134.87841797 C-313.32857183 172.30365473 -295.63116618 206.61159023 -267.58837891 235.60498047 C-267.09015625 236.12898438 -266.59193359 236.65298828 -266.07861328 237.19287109 C-250.34159943 253.71379597 -231.96377518 266.54472349 -212.08837891 277.66748047 C-211.28835449 278.12058594 -210.48833008 278.57369141 -209.6640625 279.04052734 C-204.83743156 281.6763258 -200.12672047 283.53786197 -194.8203125 284.98803711 C-189.29555595 286.51517119 -184.05004267 288.8228517 -178.77587891 291.04248047 C-177.21546875 291.68830078 -177.21546875 291.68830078 -175.62353516 292.34716797 C-173.79103504 293.10658243 -171.96368406 293.87884669 -170.14697266 294.67529297 C-146.92248322 304.14402542 -117.66454776 304.86420212 -93.58837891 298.60498047 C-92.61513672 298.40001953 -91.64189453 298.19505859 -90.63916016 297.98388672 C-69.72361164 293.38988493 -49.46280888 284.08078225 -33.58837891 269.60498047 C-46.24979756 286.97101603 -72.55654415 299.26653813 -93.08837891 303.72998047 C-93.77029297 303.88595703 -94.45220703 304.04193359 -95.15478516 304.20263672 C-96.56128367 304.52074199 -97.96973297 304.83032894 -99.37988281 305.13183594 C-100.89042568 305.45545213 -102.39788105 305.79373334 -103.90234375 306.14453125 C-110.66856117 307.64526276 -117.2978698 308.02831313 -124.21337891 308.22998047 C-125.31294922 308.26865234 -126.41251953 308.30732422 -127.54541016 308.34716797 C-130.22624349 308.44041435 -132.90708781 308.52621314 -135.58837891 308.60498047 C-130.6505796 312.51983551 -125.03850658 315.15489988 -119.46337891 318.04248047 C-118.37283203 318.61546875 -117.28228516 319.18845703 -116.15869141 319.77880859 C-109.75359855 323.10777133 -103.34407299 326.0659013 -96.58837891 328.60498047 C-95.63447266 328.98783203 -94.68056641 329.37068359 -93.69775391 329.76513672 C-77.80794601 335.84219901 -61.55893555 336.80177234 -44.70483398 336.90014648 C-43.3372159 336.91168825 -41.96964363 336.93217521 -40.60229492 336.96166992 C-27.45102621 337.24295527 -15.67191684 335.02266418 -4.21337891 328.35498047 C-3.56111328 327.99146484 -2.90884766 327.62794922 -2.23681641 327.25341797 C-0.68007556 326.38347456 0.8670038 325.49627224 2.41162109 324.60498047 C-0.54196403 326.68105117 -3.54409681 328.6643656 -6.58837891 330.60498047 C-7.62091797 331.26626953 -7.62091797 331.26626953 -8.67431641 331.94091797 C-29.72189987 343.87041473 -57.38480377 342.16156386 -80.58837891 339.60498047 C-80.58837891 340.26498047 -80.58837891 340.92498047 -80.58837891 341.60498047 C-79.04081919 342.81858566 -79.04081919 342.81858566 -76.96337891 344.04248047 C-65.17615338 351.67276909 -54.69909048 360.90653033 -44.58837891 370.60498047 C-43.76466797 371.38744141 -42.94095703 372.16990234 -42.09228516 372.97607422 C-38.09326312 376.86420483 -34.70380507 380.79565256 -31.40087891 385.29248047 C-24.92349094 393.40626119 -14.64746831 396.91859385 -4.58837891 398.60498047 C-1.08215732 398.82239146 2.40053959 398.79632358 5.91162109 398.72998047 C6.82943359 398.72095703 7.74724609 398.71193359 8.69287109 398.70263672 C10.93273665 398.67930479 13.17203292 398.64657282 15.41162109 398.60498047 C9.51346123 401.19566527 3.72291277 400.86489263 -2.58837891 400.79248047 C-3.65572266 400.79183594 -4.72306641 400.79119141 -5.82275391 400.79052734 C-10.84422281 400.76242211 -15.65751045 400.67504741 -20.58837891 399.60498047 C-19.51612799 403.2505609 -19.51612799 403.2505609 -16.80444336 405.70507812 C-14.48648275 406.64635859 -12.34039359 407.17611727 -9.88134766 407.62841797 C-8.55562744 407.87543457 -8.55562744 407.87543457 -7.203125 408.12744141 C-6.34025879 408.2850293 -5.47739258 408.44261719 -4.58837891 408.60498047 C-3.87891113 408.74967773 -3.16944336 408.894375 -2.43847656 409.04345703 C29.24219633 415.42941111 65.0615399 413.71817937 95.41162109 402.60498047 C96.63623047 402.16412109 97.86083984 401.72326172 99.12255859 401.26904297 C113.70845002 395.73435461 127.39846597 388.64359767 139.41162109 378.60498047 C140.40677734 377.77353516 141.40193359 376.94208984 142.42724609 376.08544922 C159.06289817 361.73500199 169.95088883 343.5180335 176.41162109 322.60498047 C176.76353516 321.48349609 177.11544922 320.36201172 177.47802734 319.20654297 C182.18249807 301.05791531 181.07256657 279.4046354 175.41162109 261.60498047 C175.20794922 260.9470752 175.00427734 260.28916992 174.79443359 259.61132812 C160.51713852 214.78546882 124.79937503 181.28700839 84.12646484 159.78857422 C82.30695302 158.8482961 80.48535103 157.91205093 78.66162109 156.97998047 C77.79126221 156.52937256 76.92090332 156.07876465 76.02416992 155.61450195 C75.20843506 155.20659424 74.3927002 154.79868652 73.55224609 154.37841797 C72.82553711 154.01151855 72.09882812 153.64461914 71.35009766 153.26660156 C69.23668835 152.3267837 69.23668835 152.3267837 66.41162109 153.60498047 C64.99324875 156.53860771 64.99324875 156.53860771 63.84912109 160.10498047 C63.43533203 161.29091797 63.02154297 162.47685547 62.59521484 163.69873047 C58.11938112 177.92262388 56.52456695 194.91460535 63.41162109 208.60498047 C64.89359395 211.08109472 66.43247709 213.440929 68.14208984 215.76513672 C69.41162109 217.60498047 69.41162109 217.60498047 70.41162109 220.60498047 C61.3297512 208.95404564 55.00473464 197.25353409 55.03662109 182.22998047 C55.03750732 181.45976562 55.03839355 180.68955078 55.03930664 179.89599609 C55.24776589 169.45821925 57.72824676 159.30370225 61.16162109 149.47998047 C63.29792742 142.73436104 62.69012697 135.58851525 62.41162109 128.60498047 C62.38068359 127.48607422 62.34974609 126.36716797 62.31787109 125.21435547 C61.93139621 117.36891525 60.29763451 110.12555583 58.01953125 102.61914062 C57.61176212 101.26809834 57.2157167 99.91346598 56.83105469 98.55566406 C49.36599457 72.27791759 34.29828834 49.89681008 16.41162109 29.60498047 C15.69103516 28.76193359 14.97044922 27.91888672 14.22802734 27.05029297 C10.55293105 22.79491831 6.74374237 18.9578834 2.44677734 15.33154297 C0.38142593 13.57936384 -1.59746882 11.75350002 -3.58837891 9.91748047 C-33.84893497 -16.88325093 -70.00602897 -33.47038089 -108.58837891 -44.39501953 C-109.46413574 -44.65154297 -110.33989258 -44.90806641 -111.2421875 -45.17236328 C-132.17161956 -51.26391873 -153.40293711 -52.66304611 -175.08837891 -52.64501953 C-175.88033661 -52.64442535 -176.67229431 -52.64383118 -177.48825073 -52.64321899 C-221.45442541 -52.51692703 -266.8316014 -39.48838037 -300.58837891 -10.39501953 Z M-381.58837891 271.60498047 C-383.43822288 271.90391525 -385.29361662 272.16876074 -387.15087891 272.41748047 C-392.73704713 273.24760379 -398.21521668 274.33119543 -403.71337891 275.60498047 C-404.44758057 275.77102783 -405.18178223 275.9370752 -405.93823242 276.1081543 C-409.31018983 276.90763389 -411.67431567 277.66227165 -414.58837891 279.60498047 C-415.09082274 282.48288359 -415.42504736 285.20438382 -415.65087891 288.10498047 C-415.80514276 289.76023813 -415.9626662 291.41519543 -416.12353516 293.06982422 C-416.19975098 293.86243652 -416.2759668 294.65504883 -416.35449219 295.47167969 C-416.62186624 297.91042126 -417.05143108 300.27410836 -417.58837891 302.66748047 C-418.7598539 308.07428813 -419.33646471 313.53076105 -419.95166016 319.02294922 C-420.46255778 323.57071871 -421.01149985 328.11349317 -421.56884766 332.65576172 C-421.70108734 333.73546989 -421.70108734 333.73546989 -421.83599854 334.83699036 C-422.19559237 337.77174596 -422.55538271 340.70647439 -422.91766357 343.64089966 C-423.17536083 345.73030038 -423.431344 347.81989876 -423.68603516 349.90966797 C-423.8077005 350.90676033 -423.8077005 350.90676033 -423.93182373 351.92399597 C-424.51631109 356.79850371 -424.97401714 361.67486821 -425.34008789 366.5703125 C-425.58837891 368.60498047 -425.58837891 368.60498047 -426.58837891 370.60498047 C-427.40375844 379.37613464 -427.31090846 386.60278979 -421.58837891 393.60498047 C-414.66874703 401.05565386 -407.02089614 401.96879012 -397.27587891 403.10498047 C-390.97196284 403.84854024 -384.81292161 404.69561438 -378.63256836 406.15429688 C-374.41509428 407.08412575 -370.10853217 407.45434071 -365.82275391 407.94482422 C-361.28370486 408.57418816 -356.8637996 409.65555752 -352.40771484 410.71069336 C-348.09593592 411.72028465 -343.77352177 412.67319816 -339.44775391 413.62060547 C-321.50986988 417.56979834 -303.68932533 421.62658248 -286.07519531 426.86572266 C-283.82659644 427.53416536 -281.57433636 428.18681214 -279.31884766 428.83154297 C-270.71367864 431.303752 -262.15555392 433.93784314 -253.59802246 436.56939697 C-251.70393574 437.15118356 -249.80876933 437.72945145 -247.91357422 438.30761719 C-241.72422323 440.22113164 -235.6777983 442.27301223 -229.69116211 444.74975586 C-226.17571313 446.17952688 -222.55867666 447.26165095 -218.93603516 448.38232422 C-215.06945055 449.79450739 -211.39244545 451.50133407 -207.65600586 453.22436523 C-203.39262991 455.14313889 -199.06620027 456.89130354 -194.73461914 458.64941406 C-173.82692398 467.14125128 -153.42127178 476.62574194 -133.21337891 486.66748047 C-132.05370605 487.24369141 -130.8940332 487.81990234 -129.69921875 488.41357422 C-124.17662116 491.18933007 -118.74065425 494.04813137 -113.39697266 497.15576172 C-101.21420791 504.77975364 -101.21420791 504.77975364 -87.34619141 506.38232422 C-74.80512836 502.84737869 -70.39409784 493.64539815 -64.33447266 482.90576172 C-63.22899059 480.9111164 -62.12622111 478.91496579 -61.02587891 476.91748047 C-56.30925236 468.42147325 -51.51087556 459.98335851 -46.58837891 451.60498047 C-41.57951522 443.0613267 -36.63930105 434.48218152 -31.77587891 425.85498047 C-31.17066406 424.78892578 -30.56544922 423.72287109 -29.94189453 422.62451172 C-29.38566406 421.63322266 -28.82943359 420.64193359 -28.25634766 419.62060547 C-27.76416748 418.74694336 -27.2719873 417.87328125 -26.76489258 416.97314453 C-25.67663865 414.78263548 -24.90703619 413.02539311 -24.58837891 410.60498047 C-25.63471532 408.23805423 -26.69870616 406.17953341 -28.02587891 403.97998047 C-28.39350342 403.35752441 -28.76112793 402.73506836 -29.13989258 402.09375 C-32.49940171 396.52779272 -36.29906074 391.49280814 -40.58837891 386.60498047 C-41.42240234 385.64978516 -42.25642578 384.69458984 -43.11572266 383.71044922 C-64.53029939 359.58250176 -91.52189236 342.05358803 -119.58837891 326.60498047 C-120.7652124 325.95166748 -120.7652124 325.95166748 -121.96582031 325.28515625 C-141.35394909 314.57163958 -161.69209905 305.90962712 -182.58837891 298.60498047 C-185.13091005 297.71155901 -187.67232899 296.81511923 -190.21337891 295.91748047 C-191.23689453 295.56298828 -192.26041016 295.20849609 -193.31494141 294.84326172 C-195.91451261 293.85989171 -198.38778652 292.79566055 -200.90869141 291.63623047 C-205.45729356 289.59245541 -210.03799793 288.1219337 -214.83837891 286.79248047 C-216.16663696 286.41953857 -216.16663696 286.41953857 -217.52172852 286.0390625 C-244.57326909 278.57003815 -271.68223613 272.61119417 -299.58837891 269.60498047 C-300.30363235 269.52091446 -301.0188858 269.43684845 -301.7558136 269.35023499 C-308.20213608 268.6349805 -314.57050743 268.44419462 -321.05322266 268.43701172 C-322.12600967 268.43368332 -323.19879669 268.43035492 -324.30409241 268.42692566 C-326.5655983 268.42188954 -328.82711155 268.4195163 -331.08862305 268.41967773 C-334.48515651 268.4175065 -337.88135649 268.39935684 -341.27783203 268.38037109 C-361.89900402 267.26071786 -361.89900402 267.26071786 -381.58837891 271.60498047 Z " fill="#63362A" transform="translate(664.58837890625,263.39501953125)"/>
<path d="M0 0 C7.56105213 1.39199286 14.20941151 3.9491656 21.25 7 C22.39315674 7.49129395 23.53631348 7.98258789 24.71411133 8.48876953 C43.45844103 16.60422561 61.39620621 25.62833805 79 36 C80.1432373 36.67313232 80.1432373 36.67313232 81.30957031 37.35986328 C106.89847637 52.56461107 135.45487561 73.02586811 151 99 C146.13494656 97.38461332 142.31623322 94.63874656 138.1875 91.6875 C137.44266357 91.15842041 136.69782715 90.62934082 135.93041992 90.08422852 C128.6715779 84.86782162 121.78038139 79.24306033 114.89355469 73.55078125 C111.3769013 70.67071648 107.78968126 67.88124619 104.20483398 65.08691406 C101.27689804 62.80068924 98.36936637 60.4953225 95.49609375 58.140625 C80.87377808 46.18577298 65.45912098 35.28188999 49 26 C48.18837402 25.53883789 47.37674805 25.07767578 46.54052734 24.60253906 C33.66285934 17.31901534 20.59267676 10.83806941 7 5 C7 4.34 7 3.68 7 3 C4.69 2.67 2.38 2.34 0 2 C0 1.34 0 0.68 0 0 Z " fill="#E9E8E7" transform="translate(482,563)"/>
<path d="M0 0 C9.8702424 0.54648354 19.57356939 1.63028269 29.35058594 3.046875 C31.6284635 3.37549967 33.90780702 3.69205743 36.1875 4.0078125 C45.64059209 5.34494686 54.9144634 6.9714878 64 10 C64 10.99 64 11.98 64 13 C55.46384206 13.67687596 47.90778569 12.02526376 39.6796875 10.07421875 C35.31015171 9.04455325 30.92687508 8.2380713 26.5 7.5 C17.59097136 5.99919966 8.80189738 4.02803951 0 2 C0 1.34 0 0.68 0 0 Z " fill="#744D42" transform="translate(256,653)"/>
<path d="M0 0 C0.99 0.495 0.99 0.495 2 1 C-9.78464698 9.812413 -20.5420007 14.74834437 -35 17 C-35 16.67 -35 16.34 -35 16 C-35.81154541 15.97494385 -36.62309082 15.9498877 -37.45922852 15.92407227 C-41.16045716 15.80754183 -44.86146681 15.685075 -48.5625 15.5625 C-49.83931641 15.52318359 -51.11613281 15.48386719 -52.43164062 15.44335938 C-53.67236328 15.40146484 -54.91308594 15.35957031 -56.19140625 15.31640625 C-57.32779541 15.27974854 -58.46418457 15.24309082 -59.63500977 15.20532227 C-63.13181545 14.99195699 -66.53991975 14.54045723 -70 14 C-70 13.67 -70 13.34 -70 13 C-68.86159668 13.02094727 -67.72319336 13.04189453 -66.55029297 13.06347656 C-62.26006025 13.13677869 -57.96988082 13.18212199 -53.67919922 13.21972656 C-51.83470298 13.23963929 -49.99026815 13.26677967 -48.14599609 13.30175781 C-33.37479112 13.57455573 -20.77233251 12.38493836 -7.6875 4.8125 C-7.04361328 4.45736328 -6.39972656 4.10222656 -5.73632812 3.73632812 C-2.68172981 2.1296644 -2.68172981 2.1296644 0 0 Z " fill="#8F7169" transform="translate(668,586)"/>
<path d="M0 0 C2.43111439 2.43111439 3.12148222 4.53020607 4.34765625 7.7421875 C4.78787109 8.89074219 5.22808594 10.03929687 5.68164062 11.22265625 C6.13732422 12.42792969 6.59300781 13.63320313 7.0625 14.875 C7.52205078 16.07253906 7.98160156 17.27007812 8.45507812 18.50390625 C12.15707536 28.21281531 12.15707536 28.21281531 13 32 C12.01 31.67 11.02 31.34 10 31 C9.505 32.485 9.505 32.485 9 34 C0 5.89320388 0 5.89320388 0 0 Z " fill="#7D584F" transform="translate(333,388)"/>
<path d="M0 0 C0.33 0 0.66 0 1 0 C1.02578125 0.94359375 1.0515625 1.8871875 1.078125 2.859375 C1.59571837 14.57580672 3.55438735 24.38009461 10.6328125 34.0625 C11.98095963 35.97301707 13.00902771 37.88592577 14 40 C5.98988205 36.75739208 2.15178712 26.73591266 -1.25 19.34765625 C-2 17 -2 17 -1 14 C-0.77439324 11.60745424 -0.59151405 9.21071877 -0.4375 6.8125 C-0.35371094 5.54019531 -0.26992188 4.26789063 -0.18359375 2.95703125 C-0.12300781 1.98121094 -0.06242188 1.00539063 0 0 Z " fill="#785147" transform="translate(723,445)"/>
<path d="M0 0 C0 3 0 3 -1.51171875 4.7265625 C-6.11868268 8.74628328 -10.86175415 12.44518975 -15.875 15.9375 C-16.71357544 16.52168701 -16.71357544 16.52168701 -17.5690918 17.11767578 C-20.0399578 18.80087599 -22.14616839 20.0487228 -25 21 C-25 19.68 -25 18.36 -25 17 C-24.11699219 16.52691406 -23.23398437 16.05382812 -22.32421875 15.56640625 C-14.12839623 11.08220238 -7.03282105 6.20036468 0 0 Z " fill="#765046" transform="translate(631,532)"/>
<path d="M0 0 C10.0695786 0.59788123 20.00624051 1.66317243 30 3 C30 3.33 30 3.66 30 4 C9.46808511 4.38297872 9.46808511 4.38297872 0 2 C0 1.34 0 0.68 0 0 Z " fill="#8B6C63" transform="translate(256,653)"/>
<path d="M0 0 C3.64836196 0.61080167 7.29310432 1.24099656 10.9375 1.875 C12.49887695 2.13603516 12.49887695 2.13603516 14.09179688 2.40234375 C15.08115234 2.57636719 16.07050781 2.75039063 17.08984375 2.9296875 C18.00628662 3.08679199 18.92272949 3.24389648 19.86694336 3.40576172 C20.57085205 3.60186035 21.27476074 3.79795898 22 4 C22.33 4.66 22.66 5.32 23 6 C15.04601192 5.54593375 7.67202093 4.12888539 0 2 C0 1.34 0 0.68 0 0 Z " fill="#93766E" transform="translate(262,644)"/>
<path d="M0 0 C2.54601887 2.54601887 3.78230695 5.48110469 5.3125 8.6875 C7.81366667 13.82641581 10.46480714 18.50066363 14 23 C13.01 23.33 12.02 23.66 11 24 C0 6.85985748 0 6.85985748 0 0 Z " fill="#92756E" transform="translate(204,466)"/>
<path d="M0 0 C2.57833439 2.57833439 3.3761471 5.10325781 4.6875 8.5 C5.14511719 9.6653125 5.60273438 10.830625 6.07421875 12.03125 C7 15 7 15 6 17 C5.34 17.33 4.68 17.66 4 18 C3.32678716 15.75194998 2.66165877 13.50147776 2 11.25 C1.62875 9.99703125 1.2575 8.7440625 0.875 7.453125 C0 4 0 4 0 0 Z " fill="#9A8079" transform="translate(333,388)"/>
<path d="M0 0 C0.33 0 0.66 0 1 0 C1.33 6.27 1.66 12.54 2 19 C1.01 19 0.02 19 -1 19 C-1.5625 17.0625 -1.5625 17.0625 -2 15 C-1.67 14.67 -1.34 14.34 -1 14 C-0.76472227 11.65012738 -0.58613583 9.29443961 -0.4375 6.9375 C-0.35371094 5.64714844 -0.26992188 4.35679687 -0.18359375 3.02734375 C-0.12300781 2.02832031 -0.06242188 1.02929688 0 0 Z " fill="#7C584E" transform="translate(723,445)"/>
<path d="M0 0 C0 3 0 3 -1.828125 5.078125 C-2.62734375 5.79484375 -3.4265625 6.5115625 -4.25 7.25 C-5.43335938 8.34054687 -5.43335938 8.34054687 -6.640625 9.453125 C-9 11 -9 11 -11.296875 10.734375 C-11.85890625 10.49203125 -12.4209375 10.2496875 -13 10 C-12.22914063 9.44570313 -11.45828125 8.89140625 -10.6640625 8.3203125 C-9.66117188 7.59585938 -8.65828125 6.87140625 -7.625 6.125 C-6.62726562 5.40570312 -5.62953125 4.68640625 -4.6015625 3.9453125 C-2.00530106 2.1005342 -2.00530106 2.1005342 0 0 Z " fill="#9C827C" transform="translate(631,532)"/>
<path d="M0 0 C1.43931117 0.45261358 2.87638999 0.91232979 4.3125 1.375 C5.11300781 1.63023437 5.91351563 1.88546875 6.73828125 2.1484375 C9 3 9 3 12 5 C3.42857143 4.14285714 3.42857143 4.14285714 0 2 C0 1.34 0 0.68 0 0 Z " fill="#E5E2E1" transform="translate(461,555)"/>
<path d="M0 0 C4 5 4 5 8 10 C7.01 10 6.02 10 5 10 C0 4.88372093 0 4.88372093 0 0 Z " fill="#A1857D" transform="translate(729,474)"/>
<path d="M0 0 C3.36720387 1.39332574 4.9859524 2.9789286 7 6 C6.34 6.66 5.68 7.32 5 8 C0 2.25 0 2.25 0 0 Z " fill="#6D4439" transform="translate(216,489)"/>
<path d="M0 0 C1.32 0.66 2.64 1.32 4 2 C3.01 2.33 2.02 2.66 1 3 C-0.21869929 5.50447516 -0.21869929 5.50447516 -1 8 C-1.66 8 -2.32 8 -3 8 C-1.125 1.125 -1.125 1.125 0 0 Z " fill="#D2C7C3" transform="translate(732,416)"/>
<path d="M0 0 C-0.33 0.99 -0.66 1.98 -1 3 C-3.5625 4.1875 -3.5625 4.1875 -6 5 C-6 3.68 -6 2.36 -6 1 C-4 0 -4 0 0 0 Z " fill="#6D4439" transform="translate(612,548)"/>
<path d="M0 0 C0.99 1.32 1.98 2.64 3 4 C2.67 4.66 2.34 5.32 2 6 C1.34 5.67 0.68 5.34 0 5 C-0.33 5.99 -0.66 6.98 -1 8 C-1.625 5.6875 -1.625 5.6875 -2 3 C-1.34 2.01 -0.68 1.02 0 0 Z " fill="#8A6961" transform="translate(343,414)"/>
<path d="M0 0 C0.66 0 1.32 0 2 0 C2.66 2.31 3.32 4.62 4 7 C3.01 7.33 2.02 7.66 1 8 C0.67 5.36 0.34 2.72 0 0 Z " fill="#8D6E66" transform="translate(336,398)"/>
<path d="M0 0 C3.63 0.33 7.26 0.66 11 1 C11 1.33 11 1.66 11 2 C9.54263913 2.19491452 8.08405407 2.38069358 6.625 2.5625 C5.81289063 2.66691406 5.00078125 2.77132812 4.1640625 2.87890625 C2 3 2 3 0 2 C0 1.34 0 0.68 0 0 Z " fill="#BEB0AC" transform="translate(584,603)"/>
<path d="M0 0 C0.99 0.33 1.98 0.66 3 1 C3 2.65 3 4.3 3 6 C2.01 6 1.02 6 0 6 C0 4.02 0 2.04 0 0 Z " fill="#754F44" transform="translate(340,410)"/>
</svg>
